<svg width="19" height="19" viewBox="0 0 19 19" fill="none" xmlns="http://www.w3.org/2000/svg">
<g clip-path="url(#clip0_19_387)">
<path d="M17.3273 4.72464C17.2923 4.67775 17.2484 4.6382 17.1981 4.60827C17.1479 4.57834 17.0922 4.5586 17.0343 4.55019C16.9764 4.54178 16.9174 4.54486 16.8607 4.55926C16.804 4.57366 16.7507 4.59909 16.7038 4.6341L9.52093 9.99566C9.49524 10.0149 9.46399 10.0253 9.43187 10.0253C9.39975 10.0253 9.3685 10.0149 9.34281 9.99566L2.30093 4.61035C2.25444 4.57487 2.20142 4.5489 2.14489 4.53391C2.08836 4.51893 2.02943 4.51522 1.97147 4.52301C1.91351 4.5308 1.85765 4.54992 1.80709 4.5793C1.75652 4.60868 1.71223 4.64772 1.67675 4.69421C1.64128 4.74071 1.6153 4.79373 1.60032 4.85026C1.58533 4.90679 1.58163 4.96571 1.58942 5.02367C1.5972 5.08163 1.61633 5.13749 1.64571 5.18806C1.67508 5.23863 1.71413 5.28292 1.76062 5.31839L7.29734 9.55332L1.82148 13.6799C1.77431 13.7151 1.73453 13.7592 1.70441 13.8098C1.67429 13.8603 1.65443 13.9163 1.64595 13.9745C1.63747 14.0328 1.64055 14.0921 1.655 14.1492C1.66946 14.2062 1.69501 14.2599 1.73019 14.307C1.76538 14.3542 1.80951 14.394 1.86007 14.4241C1.91063 14.4542 1.96662 14.4741 2.02486 14.4826C2.08309 14.491 2.14243 14.488 2.19948 14.4735C2.25652 14.4591 2.31017 14.4335 2.35734 14.3983L8.0321 10.1144L8.80101 10.7082C8.9803 10.8454 9.19941 10.9205 9.42518 10.9221C9.65096 10.9237 9.87112 10.8517 10.0523 10.7171L10.8598 10.1144L16.6014 14.3983C16.6483 14.4333 16.7016 14.4587 16.7583 14.4731C16.815 14.4875 16.874 14.4906 16.9319 14.4822C16.9898 14.4738 17.0454 14.454 17.0957 14.4241C17.146 14.3942 17.1898 14.3547 17.2248 14.3078C17.2598 14.2609 17.2852 14.2076 17.2996 14.1509C17.314 14.0942 17.3171 14.0352 17.3087 13.9773C17.3003 13.9194 17.2805 13.8637 17.2506 13.8135C17.2207 13.7632 17.1812 13.7193 17.1343 13.6843L11.6035 9.55183L17.2367 5.34363C17.3301 5.27307 17.392 5.16856 17.409 5.05271C17.4259 4.93687 17.3966 4.81901 17.3273 4.72464Z" fill="#282828"/>
<path d="M16.7734 2.82031H2.22656C1.63604 2.82031 1.06971 3.0549 0.652145 3.47246C0.234584 3.89002 0 4.45635 0 5.04688L0 13.9531C0 14.5436 0.234584 15.11 0.652145 15.5275C1.06971 15.9451 1.63604 16.1797 2.22656 16.1797H16.7734C17.364 16.1797 17.9303 15.9451 18.3479 15.5275C18.7654 15.11 19 14.5436 19 13.9531V5.04688C19 4.45635 18.7654 3.89002 18.3479 3.47246C17.9303 3.0549 17.364 2.82031 16.7734 2.82031ZM18.1094 13.9531C18.1094 14.3074 17.9686 14.6472 17.7181 14.8978C17.4676 15.1483 17.1278 15.2891 16.7734 15.2891H2.22656C1.87225 15.2891 1.53245 15.1483 1.28191 14.8978C1.03138 14.6472 0.890625 14.3074 0.890625 13.9531V5.04688C0.890625 4.69256 1.03138 4.35276 1.28191 4.10222C1.53245 3.85169 1.87225 3.71094 2.22656 3.71094H16.7734C17.1278 3.71094 17.4676 3.85169 17.7181 4.10222C17.9686 4.35276 18.1094 4.69256 18.1094 5.04688V13.9531Z" fill="#282828" stroke="#282828" stroke-width="0.5"/>
</g>
<defs>
<clipPath id="clip0_19_387">
<rect width="19" height="19" fill="white"/>
</clipPath>
</defs>
</svg>
