<svg width="30" height="30" viewBox="0 0 30 30" fill="none" xmlns="http://www.w3.org/2000/svg">
<path d="M21.3717 11.724C21.3838 11.606 21.2913 11.5035 21.1728 11.5035H17.3489V8.8503C17.3489 7.85389 18.0093 7.62158 18.4744 7.62158C18.8568 7.62158 20.5469 7.62158 21.1304 7.62158C21.2408 7.62158 21.3293 7.53204 21.3293 7.42158V3.44037C21.3293 3.33021 21.2402 3.2408 21.13 3.24037L17.3976 3.2258C13.033 3.2258 12.0397 6.49287 12.0397 8.5836V11.5035H9.71562C9.60517 11.5035 9.51562 11.5931 9.51562 11.7035V15.8173C9.51562 15.9278 9.60517 16.0173 9.71563 16.0173H12.0397C12.0397 21.2364 12.0397 27.4188 12.0397 28.5923C12.0397 28.7028 12.1293 28.7898 12.2397 28.7898H17.1489C17.2593 28.7898 17.3489 28.7026 17.3489 28.5922C17.3489 27.4125 17.3489 21.1768 17.3489 16.0173H20.7508C20.8533 16.0173 20.9393 15.9398 20.9497 15.8377L21.3717 11.724Z" stroke="white" stroke-width="2"/>
</svg>
