<svg width="32" height="32" viewBox="0 0 32 32" fill="none" xmlns="http://www.w3.org/2000/svg">
<path d="M28.8898 22C27.7063 20.137 26.3213 18.4099 24.7598 16.85C24.7314 16.8145 24.7159 16.7704 24.7159 16.725C24.7159 16.6796 24.7314 16.6355 24.7598 16.6C26.1035 14.766 27.291 12.8225 28.3098 10.79C28.4572 10.4992 28.5272 10.1753 28.5132 9.84953C28.4992 9.52378 28.4016 9.20711 28.2298 8.93C28.0731 8.64835 27.844 8.41365 27.5663 8.25015C27.2885 8.08666 26.9721 8.0003 26.6498 8H23.6498C23.2691 8.00738 22.8984 8.12329 22.5814 8.33409C22.2643 8.54489 22.0139 8.84183 21.8598 9.19C20.9884 11.1172 19.9441 12.9614 18.7398 14.7V9.8C18.7411 9.56325 18.6955 9.32859 18.6055 9.1096C18.5155 8.89062 18.383 8.69166 18.2156 8.52425C18.0481 8.35684 17.8492 8.2243 17.6302 8.13431C17.4112 8.04432 17.1766 7.99867 16.9398 8H12.5598C12.3048 8.00396 12.0558 8.0775 11.8395 8.21266C11.6233 8.34783 11.4481 8.53949 11.3328 8.76696C11.2175 8.99443 11.1665 9.24906 11.1854 9.50338C11.2043 9.75769 11.2922 10.002 11.4398 10.21L11.8398 10.77C12.0544 11.0781 12.1695 11.4445 12.1698 11.82V15.66C10.8497 13.7071 9.80021 11.5845 9.0498 9.35C8.91449 8.95624 8.65966 8.61453 8.32085 8.37253C7.98205 8.13053 7.57616 8.00029 7.1598 8H4.7098C4.44949 8.00311 4.19323 8.06493 3.96013 8.18086C3.72703 8.29678 3.5231 8.46382 3.36353 8.66953C3.20397 8.87523 3.09289 9.11429 3.03857 9.3689C2.98425 9.6235 2.98809 9.88708 3.0498 10.14C4.3998 15.87 7.2298 20.62 10.8198 23.14C11.035 23.2928 11.3018 23.3544 11.5622 23.3114C11.8226 23.2683 12.0554 23.124 12.2098 22.91C12.287 22.8031 12.3424 22.682 12.3726 22.5537C12.4029 22.4253 12.4075 22.2923 12.3861 22.1621C12.3647 22.032 12.3178 21.9074 12.2481 21.7955C12.1783 21.6836 12.0872 21.5865 11.9798 21.51C8.8398 19.31 6.3398 15.12 5.0698 10H7.1698C8.09004 12.7959 9.47623 15.4161 11.2698 17.75C11.4771 18.0149 11.7626 18.2077 12.0857 18.301C12.4089 18.3944 12.7532 18.3835 13.0698 18.27C13.3947 18.1567 13.6757 17.9442 13.8731 17.6625C14.0705 17.3807 14.1743 17.044 14.1698 16.7V11.82C14.1719 11.1843 14.0137 10.5583 13.7098 10H16.7098V15.43C16.7062 15.8185 16.8306 16.1975 17.0637 16.5083C17.2969 16.8191 17.6258 17.0446 17.9998 17.15C18.3627 17.2708 18.7552 17.2686 19.1167 17.1439C19.4782 17.0192 19.7886 16.7788 19.9998 16.46C21.4202 14.4336 22.633 12.2694 23.6198 10H26.4198C25.4667 11.8741 24.3666 13.6697 23.1298 15.37C22.8179 15.7872 22.6666 16.3026 22.7033 16.8222C22.74 17.3418 22.9624 17.8308 23.3298 18.2C24.7883 19.6697 26.1011 21.2772 27.2498 23H23.8998C22.8663 21.2893 21.4786 19.8197 19.8298 18.69C19.5824 18.5087 19.2892 18.4005 18.9834 18.3775C18.6776 18.3545 18.3715 18.4178 18.0998 18.56C17.8205 18.703 17.5864 18.9209 17.4239 19.1893C17.2614 19.4578 17.1769 19.7662 17.1798 20.08V22.46C17.1853 22.5989 17.1359 22.7345 17.0424 22.8373C16.9489 22.9402 16.8186 23.0022 16.6798 23.01H15.8198C15.5546 23.01 15.3002 23.1154 15.1127 23.3029C14.9252 23.4904 14.8198 23.7448 14.8198 24.01C14.8198 24.2752 14.9252 24.5296 15.1127 24.7171C15.3002 24.9046 15.5546 25.01 15.8198 25.01H16.6798C17.0116 25.0074 17.3396 24.9393 17.645 24.8096C17.9504 24.6799 18.2272 24.4912 18.4594 24.2543C18.6917 24.0173 18.8749 23.7369 18.9986 23.429C19.1222 23.1211 19.1838 22.7918 19.1798 22.46V20.69C20.3827 21.5948 21.4011 22.7218 22.1798 24.01C22.3517 24.3079 22.5976 24.5565 22.8936 24.7317C23.1897 24.9069 23.5259 25.0027 23.8698 25.01H27.2498C27.5954 25.0109 27.9349 24.9184 28.2323 24.7424C28.5298 24.5664 28.7742 24.3134 28.9398 24.01C29.1097 23.7004 29.1945 23.3513 29.1857 22.9983C29.177 22.6452 29.0749 22.3008 28.8898 22Z" fill="white"/>
</svg>
